# xmcd CD database file
#
# Track frame offsets:
#	150
#	21665
#	40520
#	59477
#	74392
#	91887
#	107203
#	127429
#	141883
#	165124
#
# Disc length: 2446 seconds
#
# Revision: 7
# Processed by: cddbd v1.5.2PL0 Copyright (c) Steve Scherf et al.
# Submitted via: CDex 1.40Beta6
#
DISCID=8e098c0a
DTITLE=Whitesnake - Starkers in Tokyo
DYEAR=1998
DGENRE=Hard Rock
TTITLE0=Sailing Ships
TTITLE1=Too Many Tears
TTITLE2=The Deeper Love
TTITLE3=Love Ain't No Stranger
TTITLE4=Can't Go On
TTITLE5=Give Me All Your Love
TTITLE6=Don't Fade Away
TTITLE7=Is this Love?
TTITLE8=Here I Go Again
TTITLE9=Soldier of Fortune
EXTD=
EXTT0=
EXTT1=
EXTT2=
EXTT3=
EXTT4=
EXTT5=
EXTT6=
EXTT7=
EXTT8=
EXTT9=
PLAYORDER=
